<svg version="1.2" xmlns="http://www.w3.org/2000/svg" viewBox="0 0 512 166" width="512" height="166">
	<title>-1-svg</title>
	<style>
		.s0 { fill: #e100e6 } 
		.s1 { fill: #8a25b1 } 
		.s2 { fill: #ffffff } 
	</style>
	<path id="_tsAOuXmBGFlROJQvxZY6S" class="s0" d="m272.3 114.3h21.8v34.3h196.1v-120.1h-21.8v-17.1h43.6v154.3h-239.7z"/>
	<path id="_ZdxH3rq2qbehsZlT-zKRc" fill-rule="evenodd" class="s1" d="m425.9 115.9c0 0-1.6 1-3-0.2 0.4 0.7 0.6 1.7-0.7 2.9 0 0-1.8 1.5-3.4-0.7q-0.4 0.4-0.8 0.7l0.6-0.4c0 0 1.8 1.7-0.7 3.3 0 0-0.8 0.8-2.4-0.1 0.2 0.8 0.1 1.9-1.1 2.9 0 0-1.7 0.8-2.9-0.5 0.3 0.7 0.4 1.8-1 2.7 0 0-1.6 1.1-2.9-0.3q-0.1 0-0.2 0.1c0.1 0.6-0.1 1.5-1.5 2.1 0 0-0.6 0.5-1.7 0 0 0.7-0.2 1.4-1.3 2.2 0 0-1.2 0.8-2.5-0.1 0.1 0.8-0.2 1.6-1.2 2.4 0 0-1.6 0.6-2.7-0.4q-0.1 0-0.1 0c0.1 0.7 0 1.6-1.3 2.4 0 0-1.6 1-2.8-0.5q-0.1 0.1-0.2 0.1c0 0.7-0.3 1.5-1.6 2.1 0 0-0.8 0.5-2.1-0.3 0.2 0.7 0.2 1.7-1.2 2.5 0 0-1.8 1.1-3-0.8 0 0.7-0.4 1.4-1.6 1.9 0 0-1.2 0.8-2.9-0.9q-0.2 0-0.4 0.1c0 0-0.2-0.1-0.5-0.3-1.9 2-3.1 1.2-3.1 1.2-1.8-0.8-1.7-2-1.5-2.7-1.2 2.1-3.1 1-3.1 1-1.4-0.9-1.5-1.8-1.2-2.6-1.3 0.9-2.1 0.3-2.1 0.3-1.8-0.8-1.7-1.9-1.5-2.6-1.2 2.1-3.1 1-3.1 1-1.5-0.9-1.5-2-1.2-2.7-1.2 1.4-2.9 0.7-2.9 0.7-1-0.8-1.3-1.7-1.3-2.4-1.2 0.9-2.5 0-2.5 0-1-0.7-1.3-1.5-1.2-2.1-1.1 0.5-1.8 0-1.8 0-1.7-0.9-1.6-2.1-1.3-2.7-1.4 2-3.2 0.8-3.2 0.8-1.4-1-1.3-2-1-2.7-1.2 1.2-3 0.5-3 0.5-1.1-1-1.2-2.1-1-2.9-1.6 0.9-2.5 0.1-2.5 0.1-1.6-1.1-1.3-2.3-0.9-2.9-1.6 1.9-3.3 0.5-3.3 0.5-1.3-1.2-1.1-2.2-0.7-2.9-1.4 1.2-3 0.2-3 0.2-2.1-2.3 0.1-4.3 0.1-4.3 0 0 8.9-25.1 14.1-30.5 0 0 6.8-7.6 0.4-21.9 0 0-9.4-23-11.5-30.3-2.1-7.2-3.5-16-3-20.6 0 0-2.3-3.6 1-5.8 0 0 2.6-0.6 5.2 2.4q0 0 0 0 0.1 0 0.1 0 0 0 0 0h-0.1c0-0.1-2-3 2-4.4 0 0 2.5 0.1 3.6 2.6 0-1.4 0.5-3.7 3.9-3.1 0 0 0.9 0.4 1.6 1.5 0.2-0.7 0.9-1.6 2.9-1.6 0 0 1.9-0.2 3 3.1q0 0 0.1 0c0-1.3 0.4-3.3 3.4-3 0 0 2.2 0.5 3.3 3.1 0.5-1.1 1.7-2.3 4.1-1 0 0 1.6 1.1 1.8 3.5 0.6-0.8 1.6-1.2 3.2-0.3 0 0 1.4 0.9 1.6 3 0.5-0.2 1.1-0.1 2 0.3 0 0 1.5 1.2 1.4 3.7 0.6-0.5 1.5-0.8 2.8 0.3 0.8-0.8 1.6-0.5 2.2 0 0.1-2.1 1.4-3.1 1.4-3.1 1.2-0.7 2.1-0.5 2.6 0 0.2-2.1 1.7-3 1.7-3 1.5-0.7 2.6-0.4 3.3 0.2 0.1-2.3 1.6-3.3 1.6-3.3 1.9-1 3.1-0.7 4 0.1 1.1-1.8 2.8-2.2 2.8-2.2 2.8-0.4 3.4 1.4 3.4 2.7 1.2-3.5 3.1-3.2 3.1-3.2 1.8-0.1 2.5 0.6 2.8 1.3 0.7-1.6 1.7-2.1 1.7-2.1 3-0.7 3.8 1.6 3.9 3.4q0 0 0 0c1.1-2.6 3.6-2.6 3.6-2.6 2.9 1 2.6 2.8 2.3 3.7 2.5-2.5 4.9-2 4.9-2 2.7 1.8 1.7 4.5 1.2 5.4 0.5 2.8 1.9 13.1-2.5 21.6 0 0-9.9 24.8-11.5 29.5 0 0-6.2 13.2 1.6 23.1 0 0 12.5 22.4 12.3 29.3 0 0-0.5 0.6-1.4 1.5l1.4-1.3c0 0 2.1 2 0.1 4.3zm-87.2-111q0 0 0 0h0.1q-0.1 0-0.1 0 0 0 0 0zm87.1 106.7q0 0 0 0zm-62.9-106.5q0 0 0 0 0 0 0 0 0.1 0.1 0.2 0.1 0 0 0 0zm0 0l0.2 0.1q-0.1 0-0.2 0 0-0.1 0-0.1zm5.3 2.7q0 0 0 0.1l3.4 2.2-3.4-2.3q0 0 0 0.1l3.4 2.2zm-28.6 109.8l0.1 0.1 0.1 0.1q-0.1-0.1-0.2-0.2l0.1 0.1 0.1 0.1q-0.1-0.1-0.2-0.2 0 0 0 0zm4.6-114.4q0 0 0 0 0 0 0 0zm-8.1 111.7q0 0 0 0zm0 0q0 0 0 0z"/>
	<path id="__2j2mfKMRIGwV9jwLUTrp" fill-rule="evenodd" class="s0" d="m27.3 25.3q12.9 0 20.9 7.7 8.1 7.8 8.1 20.5 0 12.6-8.1 20.4-8 7.8-20.9 7.8h-27.3v-0.8h1q2.1 0 3.6-1.5 1.5-1.5 1.6-3.6v-45.1q0-2-1.6-3.3-1.5-1.3-3.6-1.3h-0.9l-0.1-0.8zm0 2.4h-15.9v51.6h15.9q6.8 0 12-3.3 5.2-3.2 8-9 2.9-5.9 2.9-13.5 0-11.6-6.3-18.7-6.4-7.1-16.6-7.1zm63.4-2.4q12.9 0 21 7.7 8 7.8 8 20.5 0 12.6-8 20.4-8.1 7.8-21 7.8h-27.3v-0.8h1.1q2.1 0 3.6-1.5 1.4-1.5 1.5-3.6v-45.1q0-2-1.5-3.3-1.6-1.3-3.6-1.3h-1l-0.1-0.8zm0 2.4h-15.9v51.6h15.9q6.8 0 12-3.3 5.2-3.2 8-9 2.9-5.9 2.9-13.5 0-11.6-6.3-18.7-6.3-7.1-16.6-7.1z"/>
	<path id="__wI2RzaYlIB4gGylafia3" fill-rule="evenodd" class="s1" d="m5.8 161.1q-0.3-1.1-0.3-4.5 0-3.3 1.3-7.1h0.7q0 0.9 0 1.8 0 5.2 3.1 8.5 3.1 3.4 8.2 3.4 5.2 0 8.6-3.2 3.4-3.1 3.4-7.9 0-4.9-3.3-7.9l-16-14.9q-4.5-4.1-4.5-10.1 0-5.9 3.9-10.1 4-4.3 10.8-4.3 3.2 0 7.2 0.9h3.2v10.3h-0.7q0-4-2.7-6.3-2.7-2.4-7-2.4-4.3 0-7.2 2.9-2.9 2.8-2.9 7.1 0 4.3 3.4 7.4l16.5 15.2q4.2 3.8 4.2 10.5 0 6.7-4.3 11-4.3 4.3-11.4 4.3-3.7 0-7.8-1.1-4.2-1.1-6.4-3.5zm76.7-44.3h-15.1v42.5q0 2.6 2.5 3.8 1.1 0.6 2.4 0.6h0.9v0.9h-17.2v-0.9h1q2 0 3.4-1.3 1.4-1.3 1.5-3.2v-42.4h-15.1q-1.9 0-3.1 1.3-1.1 1.2-1.1 3v1.3h-0.9v-9.5q1.7 0.7 4.7 1.1 3.1 0.3 4.6 0.3h27.2q6.1 0 9.4-1.4v9.5h-0.9v-1.3q0-1.8-1.2-3-1.2-1.3-3-1.3zm22-0.3q6.5-3.3 14.2-3.3 7.7 0 14.2 3.3 6.4 3.3 10.2 9.3 3.8 6.1 3.8 13.7 0 7.6-3.8 13.6-3.8 6-10.2 9.3-6.5 3.3-13.2 3.3-6.8 0-12-1.9-5.2-1.9-9-5.3-3.8-3.5-6-8.4-2.2-4.9-2.2-11.6 0-6.6 3.8-12.7 3.8-6 10.2-9.3zm-1.5 40.1q6.3 6.6 15.6 6.6 9.4 0 15.8-6.6 6.3-6.7 6.3-17.1 0-10.5-6.3-17.1-6.4-6.7-15.8-6.7-9.3 0-15.6 6.7-6.4 6.6-6.4 17.1 0 10.4 6.4 17.1zm67-39.6h-4.4v42.2q0.1 2.6 2.3 3.9 1.1 0.6 2.4 0.6h1.1l0.1 0.9h-17.1v-0.9h1.1q2 0 3.3-1.3 1.4-1.3 1.4-3.1v-39.7q0-1.9-1.4-3.1-1.3-1.3-3.3-1.3h-1.1v-0.8h21q7.8 0 12.4 3.6 4.6 3.6 4.6 9.4 0 5.9-3.7 9.8-3.7 3.9-9.4 4.5 2.7 1.2 6.4 6.6 0 0 2.9 3.6 3 3.7 4.8 5.8 1.8 2 3 3.1 3.1 2.9 7.1 2.9v0.9h-2.6q-6.6 0-10.4-2.6-2.8-2-5.2-4.8-0.5-0.7-4.2-5.9-3.7-5.2-4-5.6-4.5-5.6-8.4-5.6v-0.8q9.8 0 11.8-1 2.7-1.4 3.7-3 2.1-3.4 2.1-7.4 0-5.1-3-7.8-3-2.8-8.1-3.1-2.3 0-5.2 0zm36.8 46.7h1.2q2 0 3.4-1.3 1.4-1.3 1.4-3.1v-39.7q0-1.9-1.4-3.1-1.4-1.3-3.4-1.3h-1.2v-0.8h24.5q3.4 0 6-0.5 2.6-0.5 3.3-0.9v9.6l-0.9-0.1v-1.3q0-1.7-1.2-3-1.1-1.2-3-1.2h-17.4v21.2h14.3q1.7 0 2.6-1 0.9-1 0.9-2.5v-1.1h0.9v11.7h-0.9v-1.1q0-2.3-1.8-3.1-0.7-0.3-1.4-0.4h-14.6v21.3h13.2q3.8 0 6.4-1.4 2.7-1.3 4.1-3.1 1.3-1.9 2.8-4.9h0.8l-4.6 12h-34z"/>
	<g id="Layer">
		<path id="Layer" class="s2" d="m395.6 18c0.6-2 2.7-3.2 4.7-2.7 2.1 0.6 3.3 2.7 2.7 4.7-0.5 2.1-2.6 3.3-4.7 2.7-2-0.5-3.2-2.6-2.7-4.7z"/>
		<path id="Layer" class="s2" d="m408 21.3c0.5-2 2.6-3.2 4.7-2.7 2 0.6 3.2 2.7 2.7 4.7-0.6 2.1-2.7 3.3-4.7 2.7-2.1-0.5-3.3-2.6-2.7-4.7z"/>
		<path id="Layer" class="s2" d="m397.5 25.7c0.9-3.4 4.5-5.5 7.9-4.5 3.4 0.9 5.4 4.4 4.5 7.8-0.9 3.4-4.4 5.5-7.8 4.5-3.5-0.9-5.5-4.4-4.6-7.8z"/>
	</g>
</svg>